<?xml version="1.0" encoding="utf-8"?>
<!-- Generator: Adobe Illustrator 18.1.1, SVG Export Plug-In . SVG Version: 6.00 Build 0)  -->
<svg version="1.1" id="圖層_1" xmlns="http://www.w3.org/2000/svg" xmlns:xlink="http://www.w3.org/1999/xlink" x="0px" y="0px"
	 viewBox="0 1212 1440 540" enable-background="new 0 1212 1440 540" xml:space="preserve">
<g>
	<g>
		<path fill="#E08623" d="M393.3,1625.8c2.1,4.2,4.2,8.3,6.2,12.5c12.5,21.3,29.1,37.9,50.3,50.3c21.3,12.5,44.1,18.7,69.5,18.7
			c18.7,0,36.3-3.6,54-10.9c17.1-7.3,32.2-17.1,44.6-29.6c12.5-12.5,22.3-27,29.6-44.1c0.5-1.6,34.8-84.6-29.6-152.6
			c-11.9-12.5-27-22.3-44.1-29.6c-16.6-7.3-34.8-10.9-54.5-10.9c-18.7,0-36.8,3.6-53.4,10.4c-17.1,7.3-31.7,17.1-44.6,30.1
			c-12.5,12.5-22.8,27.5-30.1,44.6c-1.6,3.6-2.6,6.7-4.2,10.4C388.2,1525.2,371,1573.4,393.3,1625.8z M562.5,1592.6
			c-4.7,7.8-10.9,13.5-18.2,17.6c-7.8,4.2-15.6,6.7-24.4,6.7c-8.8,0-16.6-2.1-24.4-6.7c-7.8-4.2-13.5-10.4-17.6-17.6
			c-4.7-7.3-6.7-15-6.7-24.4c0-8.8,2.1-17.1,6.7-24.4c4.2-7.3,10.4-13.5,17.6-17.6c7.3-4.2,15.6-6.7,24.4-6.7
			c8.8,0,17.1,2.1,24.4,6.7c7.3,4.7,13.5,10.4,17.6,17.6c4.2,7.8,6.2,15.6,6.2,24.4C568.7,1577.6,566.7,1585.4,562.5,1592.6z"/>
	</g>
	<path fill="#D5541B" d="M385,1525.7c0-16.1-1-31.1-7.3-43.6c-13.5-26.5-33.7-44.1-56-59.7c-6.2-4.2-13-9.3-20.8-13.5
		c-18.2-10.9-45.1-19.2-63.8-11.4c-15,6.7-31.7,21.8-39.4,28V1341h4.2c4.7,0,8.3-3.6,8.3-8.3v-23.9c0-4.7-3.6-8.3-8.3-8.3h-94.4
		c-4.7,0-8.3,3.6-8.3,8.3v23.9c0,4.7,3.6,8.3,8.3,8.3h1h3.1V1686h85.6v-132.3c0-16.6,11.4-29.6,23.4-40c7.3-6.7,22.8-23.4,33.7-19.2
		c6.7,2.6,19.2,13.5,23.4,17.1c10.9,9.3,20.2,22.3,22.8,37.9c0,0.5,0,1.6,0.5,2.1v132.8v1.6h85.6v-1.6L385,1525.7z"/>
	<path fill="#4BA738" d="M1340.9,1517.4c14.5-15,34.2-24.9,48.3-28.5l-20.2-78.4c-24.4,8.3-44.6,22.8-60.2,40.5
		c-15.6,17.6-28,37.9-35.3,63.3h-2.1c-7.8-29.6-19.2-49.3-31.1-63.8c-16.1-18.7-46.7-30.1-86.1-31.7l0,0h-81.5h-5.2
		c-18.7,0-33.7,3.6-46.2,10.4c-7.3,4.2-14,9.9-19.7,17.1s-10.4,15-13.5,23.4c-3.1,8.8-4.7,17.6-4.7,26.5c0,23.4,9.3,43.1,28.5,59.7
		c-22.3,17.6-33.2,38.4-33.2,62.8c0,8.8,1.6,17.6,5.2,25.9c3.1,8.8,7.8,16.6,14,23.9c14.5,15.6,33.7,23.9,57.6,24.9h11.4h86.7V1631
		h-56h-7.8c-6.7,0-13-2.1-17.6-6.2c-4.7-4.2-7.3-9.3-7.3-16.1c0-6.2,2.6-11.9,7.3-16.1c4.7-3.6,10.9-5.7,18.7-6.2h5.7h56.6v-61.2
		h-56.6h-9.3c-7.3,0-13.5-2.1-18.2-6.7c-5.2-4.2-7.3-9.3-7.3-16.1c0-6.2,2.1-11.4,6.7-15.6c4.2-3.6,10.4-6.2,17.6-6.2h10.9h50.3
		c35.8,3.1,42,7.3,51.4,19.2c16.6,20.2,33.7,67.5,33.7,116.2v16.6c0,5.2-1,50.3-1.6,59.2h75.2c-0.5-7.8-1.6-46.7-1.6-51.9v-24.9
		C1305.1,1571.9,1321.7,1536.1,1340.9,1517.4z"/>
	<g>
		<g>
			<g>
				<path fill="#4679BC" d="M735.8,1640.4c-2.1,2.1-1.6,6.7-3.1,9.9c0.5,1,1,2.1,1,2.1c4.7-1.6,7.3,2.6,7.3,2.6s-3.1-9.9-2.6-19.2
					L735.8,1640.4z"/>
			</g>
			<g>
				<path fill="#4679BC" d="M731.7,1673.6c-3.6-0.5-10.9,2.6-16.1,4.7c-4.7,2.1-15,7.3-14.5,3.6c0.5-3.1,9.9-14,9.9-14
					s-1-0.5-4.7,0.5c-3.1,1-3.6,1-6.7,1.6c-3.1,0.5-3.1-0.5-3.1-0.5c1-5.7,9.9-9.9,15-16.6c5.2-6.7,11.4-14,13.5-13.5
					c2.1,0.5,1.6,3.1,1.6,3.1c3.1,1.6,2.1,6.7,2.1,6.7s1,0,1.6,0c0.5-5.2,6.2-11.4,3.6-16.6c-5.7,1.6-10.9,3.6-15,7.3
					c-3.1-3.1-8.3-1-12.5-2.1c-4.7-1-5.7-5.7-9.3-7.3c-0.5-3.1,1.6-2.6,0.5-5.2c2.1-0.5,4.2-0.5,5.7-1c-1.6-1-4.7-1-5.7-2.6
					c3.1-7.8-3.1-11.9-1.6-19.2c3.1-0.5,2.6,1.6,5.7,1c0.5-3.1-0.5-9.3,1.6-11.9c1.6-0.5,3.6-0.5,5.2-1
					c-2.1-11.9,3.6-20.8,13.5-23.4c2.6-5.2,5.7-7.8,8.3-10.9c-3.6-3.6-8.3-8.3-9.9-11.4c-3.1-5.7-11.4-13.5-19.2-19.7
					c-7.8-5.7-18.2-19.2-21.3-21.8c-3.1-2.6-6.7-2.1-11.4-4.7c-4.7-2.6-6.2-4.2-4.7-3.6c1.6,0.5,5.2,2.6,9.9,0.5s6.2,1.6,11.4,3.1
					s16.1,10.9,24.4,19.2c8.8,8.3,16.6,11.9,20.8,18.7c2.1,3.1,5.7,5.2,9.3,6.2c8.3-4.2,13.5,0,17.6-0.5c-0.5-2.1-2.6-8.3-5.2-10.9
					c-4.7-6.2-7.3-17.1-3.1-25.4c4.2-7.8,15.6-8.8,23.4-3.1c7.8,5.7,6.2,14.5,7.3,14.5c1-0.5,4.2-1,7.3-7.3
					c3.1-5.7,8.3-18.7,9.3-25.9s5.2-13.5,7.8-19.2c2.6-5.7,1-13.5-1-20.2c-2.1-6.7-1-9.9,1-5.7c2.1,3.6,4.2,7.3,4.2-1.6
					c0-8.8,2.6-6.2,2.6-2.6c0,4.2,1.6,10.4,3.6,2.6c1-3.6,2.1-5.7,3.1-7.3c-17.6-10.9-36.8-16.6-57.1-16.6c-15,0-29.1,3.1-43.1,8.8
					c-14,6.2-25.4,14.5-35.3,24.9c-6.2,7.3-11.9,14.5-16.1,22.3c-4.2,8.3-7.3,16.6-8.8,25.9c-2.1,9.3-3.1,20.2-3.1,32.2v9.3v156.2
					H727v-0.5h21.8c-2.1-3.1-4.2-6.2-5.2-9.3C740.5,1674.6,735.3,1674.1,731.7,1673.6z"/>
			</g>
			<g>
				<path fill="#4679BC" d="M752.4,1586.9c-1,3.1-1,6.7-1,9.3c-1.6,10.4-3.1,13-3.1,13l-1,5.7c0.5-1.6,1-4.2,2.6-6.7
					c1.6-4.2,5.2-7.3,5.2-7.3c3.6-4.7,1.6-5.2-0.5-8.3C753,1591.1,753,1588.5,752.4,1586.9z"/>
			</g>
			<g>
				<path fill="#4679BC" d="M988.5,1497.1c-1.6-8.8-4.2-16.6-7.3-23.4c-3.1-6.7-7.8-13.5-13.5-20.8c-6.7-8.3-15-15-23.9-21.3
					c-9.3-6.2-18.7-10.9-29.1-13.5c-9.9-3.1-20.2-4.7-31.1-4.7c-20.8,0-41,6.2-59.7,18.2c0,0.5,0,0.5,0,1c-1,2.6-1.6,6.7-3.6,9.3
					c-2.1,2.6-2.1,6.7-2.1,6.7c4.7-3.1,9.3-3.6,3.1,2.6c-5.7,6.2-9.3,25.4-10.4,33.7c-1,8.3-5.2,12.5-7.8,19.7
					c-2.6,6.7-9.3,23.9-13,29.6c-3.1,5.2-1,10.4-1,10.4s11.4,5.7,12.5,18.2c1,12.5-5.7,29.1-5.7,29.1s0.5,8.3,0.5,15
					s-0.5,16.6-1.6,17.6c-1,1-4.2,0-4.2,0s0.5,0.5-3.1,5.2c-3.6,5.2,0.5,4.2-2.1,8.8s0.5,7.8,1,14.5c1,6.2,6.2,19.2,10.4,31.7
					c1,3.1,1.6,6.2,1.6,8.3h60.2v-0.5h9.3c-2.1-15.6-4.2-31.7-6.7-47.7c-1.6-9.9-0.5-20.2,0-30.1c-0.5-2.1-1.6-3.6-2.1-6.2
					c4.2-8.8,1-22.3-4.7-29.6c-0.5,3.1-1,5.7-0.5,9.9c-2.6,0.5-3.6,2.1-6.2,2.1c-3.1,6.2-4.7,11.4-8.3,17.6
					c-3.6,5.7-9.9,10.4-11.9,16.6c-1.6,5.2,1,11.9-4.2,15.6c-2.6-1-0.5-5.2-0.5-7.8c-4.7,2.6-1.6,8.8,0,12.5
					c-5.7-1-9.9-4.7-7.3-14.5c9.3-11.4,10.4-32.2,18.7-44.6c1-13,8.8-24.4,11.9-37.9c4.2-4.7,10.9-6.7,13-13.5
					c-4.2-0.5-2.6-3.1-3.1-6.2c-5.2-1.6-6.2-7.8-8.3-12.5c0.5-2.6,2.1-3.6,2.6-6.2c-4.2,0-3.1-5.2-4.2-6.7c6.7-2.6,6.7-12.5,13.5-15
					c7.8-0.5,13,0.5,17.1,3.6c3.6,3.1,2.1,6.2,5.2,12.5c1.6,3.1,3.1,3.1,4.2,5.7c1,3.1-0.5,8.8,0.5,11.9c0.5,1.6,5.2,3.1,4.2,4.7
					c5.2,1,9.3-1,20.2,5.7c4.2,14.5,12.5,16.1,18.2,29.1c10.9,3.1,17.1,14.5,15,29.6c2.1,0.5,4.2,1,5.7,1.6c2.6,3.1,1.6,11.4,2.1,15
					c3.6,1,3.1-2.1,6.2-1.6c1.6,8.8-5.2,14.5-2.1,23.9c-1.6,2.1-4.7,2.1-6.7,3.6c1.6,1,4.2,1,6.7,1.6c-1,3.1,1,2.6,0.5,6.7
					c-4.2,1.6-5.7,7.3-10.4,8.8s-9.9-1-13.5,2.6c-4.2-4.2-9.9-6.7-16.1-8.8c-3.6,7.8,7.3,17.1,3.1,25.4c-3.6-2.6-2.1-11.4-5.2-15
					c0.5,7.8-4.2,14.5-3.6,21.3c0,3.6,3.1,7.3,4.7,10.9c0.5,2.1,1,4.2,1.6,6.2h72.6v-156.2v-11.9
					C991.1,1514.8,990.1,1505.4,988.5,1497.1z"/>
			</g>
			<g>
				<path fill="#4679BC" d="M819.9,1437.5c1-2.1,1.6-3.6,2.6-4.7c-1-0.5-1.6-1-2.6-1.6C818.9,1434.4,817.3,1444.2,819.9,1437.5z"/>
			</g>
		</g>
	</g>
</g>
</svg>
